<svg xmlns="http://www.w3.org/2000/svg" width="63" height="54">
  <path d="M59.8 47.591h-1.156v-1.159a3.206 3.206 0 00-3.2-3.205H44.563a3.2 3.2 0 00-3.2 3.205v1.159h-1.157a3.2 3.2 0 00-3.2 3.2v2.182a1.022 1.022 0 001.02 1.023h23.948A1.022 1.022 0 0063 52.977V50.8a3.2 3.2 0 00-3.2-3.209zm-16.4-1.159a1.159 1.159 0 011.157-1.159h10.885a1.159 1.159 0 011.157 1.159v1.159h-13.2v-1.159zm17.553 5.522H39.052V50.8a1.159 1.159 0 011.156-1.159H59.8a1.159 1.159 0 011.157 1.159v1.159zM39.046 25.573l-.048.048a3.213 3.213 0 000 4.532 3.194 3.194 0 004.522 0l6.158-6.171a3.201 3.201 0 10-4.522-4.532l-.049.049-2.367-2.372a2.119 2.119 0 00-.534-2.079l-6.609-6.622a2.107 2.107 0 00-2.074-.536l-2.367-2.372.048-.048A3.201 3.201 0 1026.682.938l-6.158 6.171a3.201 3.201 0 104.523 4.531l.048-.048 2.366 2.372a2.145 2.145 0 00-.082.584 2.1 2.1 0 00.617 1.5l.274.274-2.116 2.12a3.2 3.2 0 00-.925 2.47l-24.3 24.35a3.201 3.201 0 104.522 4.532l24.3-24.35c.068 0 .135.009.2.009a3.182 3.182 0 002.261-.937l2.116-2.12.274.274a2.1 2.1 0 002.074.537zm8.371-5.015a1.159 1.159 0 01.817 1.978l-6.157 6.17a1.158 1.158 0 01-1.636-1.638l6.158-6.171a1.15 1.15 0 01.824-.339zm-6.928 3.569l-2.18-2.185 3.175-3.181 2.18 2.184zM21.968 10.194a1.162 1.162 0 010-1.639l6.157-6.171a1.156 1.156 0 011.636 0 1.162 1.162 0 010 1.639l-6.158 6.171a1.155 1.155 0 01-1.629 0zm7.745-3.23l2.18 2.185-3.175 3.182-2.18-2.185zm-25.7 41.378a1.158 1.158 0 01-1.635-1.639l23.734-23.785.046.051 1.539 1.542c.016.017.034.031.051.046zm26.763-25.277a1.155 1.155 0 01-1.635 0l-1.54-1.542a1.163 1.163 0 010-1.64l2.116-2.12 3.175 3.182zm-1.333-8.469a.061.061 0 01-.019-.048.065.065 0 01.019-.048l4.619-4.628a.068.068 0 01.1 0l6.609 6.622a.07.07 0 010 .1l-4.619 4.628a.068.068 0 01-.1 0z" fill="#ffc222" fill-rule="evenodd"/>
</svg>
